<svg xmlns="http://www.w3.org/2000/svg" width="32" height="32" version="1" id="camera">
  <path fill="#239fdb" fill-rule="evenodd" d="M32 16c0 8.824-7.176 16-16 16S0 24.824 0 16 7.176 0 16 0c8.877 0 16 7.176 16 16z" clip-rule="evenodd"></path>
  <path fill="#2385cd" d="M17.584 31.84c.546-.055 1.108-.058 1.637-.166a15.868 15.868 0 0 0 5.718-2.41 16.12 16.12 0 0 0 5.801-7.041c.406-.957.72-1.962.934-3.002.037-.181.026-.378.056-.56l-7.886-7.888-.006-.003c-.002-.002-.002-.005-.004-.006-.025-.026-.057-.045-.084-.069-.04-.034-.079-.071-.123-.101l-.002-.002a1.396 1.396 0 0 0-.232-.125h-.002c-.048-.02-.1-.032-.15-.047-.04-.012-.077-.029-.118-.037h-.004a1.46 1.46 0 0 0-.287-.03h-2.71l-1.073-1.072c-.057-.056-.114-.056-.17-.056h-3.387c-.056-.057-.113-.057-.17-.057-.056 0-.057.057-.113.057l-1.016 1.129H9.168c-.79 0-1.41.621-1.41 1.412v1.976l.564.565h-.564v7.113c0 .395.154.748.408 1.002l9.418 9.418z"></path>
  <path fill="#fff" d="M15.323 9.169c-.057 0-.057.056-.113.056l-1.017 1.13H9.17c-.79 0-1.412.62-1.412 1.41v1.977h6.606c.17 0 .282.169.282.282 0 .113-.17.282-.282.282H7.757v7.114c0 .79.621 1.411 1.412 1.411H22.83c.79 0 1.412-.62 1.412-1.411v-7.114h-3.105c-.17 0-.283-.056-.34-.226-.056-.169.057-.282.227-.338h3.218v-1.976c0-.79-.621-1.412-1.412-1.412h-2.71L19.05 9.281c-.057-.056-.113-.056-.17-.056h-3.387c-.057-.056-.113-.056-.17-.056zm.564 1.129h2.371c.17 0 .283.113.283.282 0 .17-.113.282-.283.282H16c-.17.057-.282-.056-.339-.226 0-.112.057-.282.226-.338zm2.089 2.823a2.795 2.795 0 0 1 2.823 2.823 2.831 2.831 0 0 1-2.823 2.822 2.795 2.795 0 0 1-2.823-2.822c-.056-1.525 1.242-2.823 2.823-2.823z"></path>
</svg>
